# xmcd
# 
# Track frame offsets:
#     150
#     10616
#     22616
#     33004
#     45027
#     59138
#     78118
#     88242
#     98591
#     108943
#     123563
#     137554
#     152331
#     167982
#     184225
#     205012
#     218581
#     233592
#     247016
#     264789
# 
# Disc length: 3716
# 
# Revision: 3
# Processed by: cddbd v1.5.2PL0 Copyright (c) Steve Scherf et al.
# Submitted via: fre:ac v1.0.17
# 
DISCID=e80e8214
DTITLE=B.B. King  - Height classic Albums more B.B. Kking (1962) compositions of Duke Ellington and others (1960)
DYEAR=2014
DGENRE=Blues
TTITLE0=Bad Case Of Love
TTITLE1=Get out Of Here
TTITLE2=Bad Luck Soul
TTITLE3=Shut your Mouth
TTITLE4=Baby Look At You
TTITLE5=You're Breaking My Heart
TTITLE6=My Reward
TTITLE7=Don't Cry Anymore
TTITLE8=Blues For Me
TTITLE9=Just Like A Woman
TTITLE10=Cotton Tail
TTITLE11=Solitude
TTITLE12=Jack The Bear
TTITLE13=Sophisticated Lady
TTITLE14=Jeep Blues
TTITLE15=Take The A Train
TTITLE16=Don't Get Around Much Anymore
TTITLE17=Main Stem
TTITLE18=Mood indigo
TTITLE19=Eastside, Westside
EXTD=
EXTT0=
EXTT1=
EXTT2=
EXTT3=
EXTT4=
EXTT5=
EXTT6=
EXTT7=
EXTT8=
EXTT9=
EXTT10=
EXTT11=
EXTT12=
EXTT13=
EXTT14=
EXTT15=
EXTT16=
EXTT17=
EXTT18=
EXTT19=
PLAYORDER=
